<?xml version="1.0" encoding="UTF-8"?>
<svg id="Capa_2" xmlns="http://www.w3.org/2000/svg" xmlns:xlink="http://www.w3.org/1999/xlink" viewBox="0 0 128.8999784 128.8999784">
  <defs>
    <style>
      .cls-1 {
        fill: url(#Degradado_sin_nombre_12-3);
      }

      .cls-2 {
        fill: url(#Degradado_sin_nombre_12-4);
      }

      .cls-3 {
        fill: none;
      }

      .cls-4 {
        fill: url(#Degradado_sin_nombre_12-2);
      }

      .cls-5 {
        fill: url(#Degradado_sin_nombre_12);
      }
    </style>
    <linearGradient id="Degradado_sin_nombre_12" data-name="Degradado sin nombre 12" x1="0" y1="64.4499892" x2="128.8999784" y2="64.4499892" gradientUnits="userSpaceOnUse">
      <stop offset="0" stop-color="#e42c37"/>
      <stop offset=".6618747" stop-color="#de8218"/>
      <stop offset=".9911113" stop-color="#dca90b"/>
    </linearGradient>
    <linearGradient id="Degradado_sin_nombre_12-2" data-name="Degradado sin nombre 12" x1="54.9656445" y1="76.9161832" x2="73.3491111" y2="76.9161832" xlink:href="#Degradado_sin_nombre_12"/>
    <linearGradient id="Degradado_sin_nombre_12-3" data-name="Degradado sin nombre 12" x1="78.1596017" y1="77.2944643" x2="98.3803357" y2="77.2944643" xlink:href="#Degradado_sin_nombre_12"/>
    <linearGradient id="Degradado_sin_nombre_12-4" data-name="Degradado sin nombre 12" x1="30.6310077" y1="77.2749075" x2="50.601953" y2="77.2749075" xlink:href="#Degradado_sin_nombre_12"/>
  </defs>
  <g id="Capa_1-2" data-name="Capa_1">
    <g>
      <g>
        <path class="cls-5" d="M64.6876405,119.9998735c-16.5023547.0004038-33.0047155.0101802-49.5070518-.0062892-4.2727234-.0042581-7.7953517-1.5540891-10.1477146-5.2718091-.921544-1.4564225-1.4334313-3.0436585-1.43155-4.8073969.0166071-15.5669536.0178797-31.1339561-.0191155-46.7008547-.001401-.5903314-.3036819-1.2970198-.6963185-1.7493551C1.0487947,59.3477069-.042476,57.0093969.0012672,54.1321032c.0710842-4.6756962.0189105-9.3532706.019767-14.0300497.0010156-5.5332772,4.321881-10.4006054,9.8478993-10.6946515,4.5957349-.2445459,9.2125399-.0988535,13.8200456-.1142095,3.073251-.0102414,6.1468874-.023866,9.2196611.0162982.908733.0118749,1.2239411-.2873531,1.2229867-1.2141769-.0024961-2.430134.0545352-4.8620606.1587909-7.2902308.2763164-6.4356996,5.9720491-11.8698939,12.3965315-11.8693066,11.7587617.0010768,23.5185879.0951461,35.2758323-.0380597,5.8810327-.0666304,10.5663402,3.7544796,12.0575859,9.0438012.3739157,1.3262329.537656,2.7366791.6066541,4.1179795.0998936,1.999346.0821761,4.0096676.0018109,6.0107818-.0407577,1.0146711.3377465,1.2451214,1.2687855,1.2409183,7.2153779-.0325719,14.4309639-.0188126,21.6464642-.0319111,5.108338-.0092687,9.4139422,2.9650921,10.8056736,7.5830228.321069,1.0653215.5057938,2.2110387.5198406,3.3227035.0573617,4.5424293.0128966,9.0860455.0284361,13.6291478.0107064,3.1299948-1.1282077,5.7587842-3.3011011,7.9899386-.2790021.2864966-.4557002.8018956-.456312,1.2115829-.0224039,15.2663246-.0572638,30.5328266.0039889,45.798937.0200423,4.9978848-3.3313726,9.8597313-9.1697266,10.9655841-.8119474.1537926-1.6536768.2098206-2.4817143.2104201-16.2684968.0118933-32.537018.0088465-48.805527.0092503ZM7.8245228,64.4692718c0,.2755577-.0000031.6697789.0000031,1.064.0002661,14.3655326.0676246,28.7315853-.0416203,43.096292-.0312473,4.1086802,3.1728692,7.1948951,7.2472615,7.1901354,32.7066132-.0382126,65.4132998-.0315808,98.1199313-.0109022,4.7128871.0029856,7.8087806-3.1001148,7.7661263-7.7894112-.0792762-8.7188228-.0223916-17.4388692-.0219267-26.158414.0002814-5.4455339.0027164-10.8910738.0003548-16.3366077-.0005017-1.1289051-.245586-1.3433815-1.3791163-1.2343905-.5638408.0542232-1.1265069.1690017-1.6899806.1708004-4.5100655.0143955-9.0201921.0121257-13.5303065.0063626-1.5177976-.0019394-2.4065127-.8167316-2.4199844-2.1855881-.0133371-1.3550667.8462812-2.0947001,2.4416786-2.0941617,4.5100899.0015356,9.0202044-.0059527,13.5302454.0110184,4.1991767.0158026,6.8683444-3.1096221,6.7533395-6.6580772-.1395378-4.3049618-.0239945-8.6179871-.0370747-12.9274701-.0019088-.6286358-.0207643-1.2785987-.175499-1.8818145-.8001765-3.1192028-3.5632789-5.129402-7.0031347-5.1305461-10.89108-.0036157-21.7821599-.0018721-32.6732399-.001505-24.4882249.0008382-48.9764498-.0017803-73.4646747.0071274-3.9019339.0014194-6.9795837,3.0863739-6.9868182,6.9599543-.0078646,4.209412.0000367,8.4188545-.0039552,12.6282849-.0042703,4.5050304,2.4778845,6.993346,6.9818963,6.994019,4.6103017.0006852,9.2206033-.0010706,13.8308927.0079655,1.2886749.0025206,2.00142.5109268,2.2358285,1.5424773.348667,1.5343588-.6441509,2.7246696-2.31237,2.7271841-5.6725152.0085529-11.3450488.003267-17.1678571.003267ZM46.3464376,29.2879432c0-1.2531726-.0786644-2.3557767.0316297-3.4391461.0593562-.583045.2971907-1.2904124.7066211-1.6690756,1.3169153-1.2179333,2.8611974-2.015791,4.7385151-2.0132032,8.2144789.0113426,16.4290863-.0146647,24.6433144.0311892.968236.0054083,1.9882542.2353018,2.8906124.595654,1.9740117.7883016,3.4841129,1.9918577,3.0350567,4.4798674-.0583161.3231614.0236152.6693812-.0104005.99967-.075948.7372902.2443624,1.0342179.9725798,1.0275371,1.9699616-.0180724,3.9402169-.0137653,5.9102886-.0041235.6869825.0033649,1.0350683-.2286883,1.0241417-.9957361-.0337465-2.3703313.0445018-4.7431036-.0245696-7.1118993-.1282441-4.3978901-3.9371579-8.0221954-8.3576324-8.0233456-11.6872798-.0030406-23.3745473-.0015601-35.0618209-.0051452-3.4678392-.0010645-7.5811018,3.1439773-8.0460706,6.6210729-.3902873,2.9186141-.2259903,5.9139471-.235418,8.8755398-.0006669.2103773.577392.5783219.9078888.6048554.9952406.0799124,2.0011325.0267904,3.0028703.026405,1.2598227-.0004833,2.5196516-.0001162,3.8723935-.0001162ZM64.468019,29.2950094v-.008455c4.2087451,0,8.4175637.0114956,12.6260641-.0203238.3638456-.0027531.9360679-.2002582,1.0508526-.4641736.4384599-1.0079353-.0778078-1.9186811-1.1590665-2.1932661-.4469516-.113506-.9210423-.1672826-1.3829094-.1679678-7.549001-.0112815-15.0980203-.0126702-22.6470213-.003787-.4621118.0005445-.9357559.0589034-1.3837292.171296-.9208588.2310314-1.1394953.7286273-1.0109698,1.9603259.09172.8789876.7478253.71767,1.2805748.7192852,4.2087023.0127253,8.4174658.0070662,12.6262048.0070662Z"/>
        <path class="cls-4" d="M54.9671471,97.8470771c.1410244-.4511485.3499579-1.1497306.5772758-1.8422804,4.4757683-13.6358653,8.9542836-27.2708191,13.4302111-40.9066232.4403932-1.3416256,1.4578418-1.932214,2.6443779-1.5198226,1.416558.4923344,2.0255124,1.6348642,1.5934397,2.9440831-4.2171634,12.778113-8.4299708,25.5576576-12.6454701,38.3363151-.4578231,1.387816-.9022664,2.7807099-1.3952309,4.156082-.344048.9599034-1.391138,1.5296541-2.3062949,1.328313-1.1655699-.256427-1.9385889-1.1609753-1.8983084-2.496067Z"/>
        <path class="cls-1" d="M98.3803357,77.1569924c-.4474533.8060497-.6758968,1.538831-1.1535482,2.0285347-5.0105734,5.136872-10.0556887,10.2401688-15.1049886,15.3391463-.9963907,1.0062039-2.2305121,1.017363-3.1794644.1044576-1.0162128-.9776209-1.0306022-2.2641117.0374662-3.3504606,2.1060611-2.1421202,4.2450122-4.2518643,6.3692925-6.3760712,2.2895012-2.2894522,4.5655306-4.5925597,6.8746336-6.8620552.6235151-.6128209.6776955-1.0149036-.0063626-1.6824923-4.3235053-4.2193536-8.6009425-8.4859805-12.8822708-12.7483737-.3487833-.3472415-.6738045-.7471462-.9033003-1.1791945-.4311428-.8116782-.3597588-1.6565278.2833336-2.3126698.6507521-.6639607,1.473883-1.1017415,2.4235817-.6257604.5246738.2629487,1.0267846.6260479,1.4440275,1.0398403,4.7874035,4.7478633,9.5721519,9.4987306,14.3113583,14.2944973.6139956.6213249.9675875,1.4999699,1.4862413,2.3306014Z"/>
        <path class="cls-2" d="M47.8248785,59.2849859c1.8749624-.0643239,3.0623611,1.7170219,2.3631794,3.1428486-.2000074.4078519-.515815.7771302-.8397901,1.1032343-4.2610045,4.2890613-8.5242237,8.5760364-12.8119574,12.8383257-.6199789.6163082-.7087868,1.018917-.0274022,1.6892342,4.4530035,4.3805856,8.8695075,8.7983804,13.2868496,13.2151107,1.3976536,1.3974701.9116207,3.3916587-.9448044,3.916981-.8538674.2416216-1.5324561-.1203397-2.1277247-.7179515-3.0173576-3.0291713-6.0364037-6.0566907-9.0621856-9.077456-2.0093244-2.0059962-4.043616-3.9871169-6.0425522-6.0033546-1.291012-1.3021649-1.3302034-2.9285191-.0346397-4.2533204,4.8808794-4.9910572,9.7837283-9.9607935,14.7101129-14.9068839.470787-.4726775,1.1626822-.7251156,1.5309144-.9467682Z"/>
      </g>
      <rect class="cls-3" x="0" width="128.8999784" height="128.8999784"/>
    </g>
  </g>
</svg>