<?xml version="1.0" encoding="UTF-8"?>
<svg id="Capa_2" xmlns="http://www.w3.org/2000/svg" xmlns:xlink="http://www.w3.org/1999/xlink" viewBox="0 0 332 227.989716">
  <defs>
    <style>
      .cls-1 {
        fill: url(#Degradado_sin_nombre_4-4);
      }

      .cls-2 {
        fill: url(#Degradado_sin_nombre_4-2);
      }

      .cls-3 {
        fill: none;
      }

      .cls-4 {
        fill: url(#Degradado_sin_nombre_4);
      }

      .cls-5 {
        fill: url(#Degradado_sin_nombre_4-3);
      }
    </style>
    <linearGradient id="Degradado_sin_nombre_4" data-name="Degradado sin nombre 4" x1="33.7488312" y1="707.9948885" x2="298.2511688" y2="707.9948885" gradientTransform="translate(0 -594.0000305)" gradientUnits="userSpaceOnUse">
      <stop offset="0" stop-color="#e42c37"/>
      <stop offset=".6618747" stop-color="#de8218"/>
      <stop offset=".9911113" stop-color="#dca90b"/>
    </linearGradient>
    <linearGradient id="Degradado_sin_nombre_4-2" data-name="Degradado sin nombre 4" x1="146.5381618" y1="733.5754729" x2="184.2609734" y2="733.5754729" xlink:href="#Degradado_sin_nombre_4"/>
    <linearGradient id="Degradado_sin_nombre_4-3" data-name="Degradado sin nombre 4" x1="194.1321079" y1="734.3517058" x2="235.6249905" y2="734.3517058" xlink:href="#Degradado_sin_nombre_4"/>
    <linearGradient id="Degradado_sin_nombre_4-4" data-name="Degradado sin nombre 4" x1="96.6035489" y1="734.3115893" x2="137.5838842" y2="734.3115893" xlink:href="#Degradado_sin_nombre_4"/>
  </defs>
  <g id="Capa_2-2" data-name="Capa_2">
    <g>
      <rect class="cls-3" y="37.4948618" width="332" height="152.9999924"/>
      <g>
        <path class="cls-4" d="M166.4876644,227.9830553c-33.8627876.0008277-67.7255753.0208883-101.5883223-.012903-8.767615-.0087318-15.9960397-3.1889894-20.8230775-10.817748-1.8910041-2.988579-2.9413978-6.2455729-2.937535-9.8647598.0340793-31.9433401.0366884-63.8867939-.0392243-95.8300122-.0028727-1.2113567-.6231542-2.6614838-1.4288453-3.5896723-3.7697057-4.3429642-6.0089894-9.1411691-5.9192284-15.0453724.1458648-9.594519.0388023-19.1928845.0405633-28.7896189.0020856-11.3542614,8.8684857-21.3420055,20.2078558-21.9453954,9.4304317-.5018051,18.9041007-.202849,28.3586911-.2343599,6.3063063-.021014,12.6133916-.0489746,18.918716.0334423,1.8647193.0243696,2.5115249-.589647,2.5095692-2.4914847-.0051206-4.9866293.1119072-9.9769348.3258373-14.9595309C104.6796661,11.229603,116.3672875.0786532,129.5503102.0798583c24.1289406.0022093,48.260056.1952391,72.3859128-.0780977,12.0678624-.1367252,21.6820929,7.7041803,24.7421335,18.5578519.7672824,2.721426,1.1032798,5.6156588,1.2448395,8.4500794.2049711,4.1026519.1686317,8.2278272.0037167,12.3341065-.0836342,2.0821024.6930455,2.5549853,2.6035339,2.546363,14.8059284-.0668359,29.6122787-.0386035,44.4184667-.0654848,10.4823024-.0190177,19.3173701,6.0843584,22.1732023,15.5603402.6588484,2.1860365,1.0378884,4.5370368,1.0667132,6.8181822.1177014,9.3210565.0264552,18.6445393.0583638,27.9669673.0219757,6.4227336-2.3150747,11.8170085-6.7738657,16.3953268-.5725038.58789-.9351188,1.64549-.9363523,2.4861653-.0459964,31.3264467-.1175066,62.6532667.00818,93.9792915.0411273,10.2556478-6.8359624,20.2321362-18.8162467,22.5013444-1.6661267.3155799-3.3933438.4305546-5.0924502.4317718-33.3828933.0244102-66.7658515.0181616-100.1487935.0189731v.0000162ZM49.8047192,114.0344269c0,.5654437-.0000081,1.3743808.0000081,2.1833342.0005437,29.4780225.1387681,58.9571163-.0854033,88.4334671-.0641174,8.4310008,6.5107174,14.7638922,14.8713604,14.7541216,67.1138593-.0784243,134.2278809-.0647909,201.3418051-.0223652,9.6708252.0061188,16.0235823-6.361424,15.9360691-15.9838508-.1626915-17.8909958-.0459639-35.7845236-.0449901-53.6769964.0005843-11.1742117.0055832-22.348456.0007466-33.5226677-.0010387-2.3165111-.5039475-2.7566171-2.8299613-2.532965-1.157018.1112661-2.3116014.3467824-3.4678404.3504829-9.2546506.029539-18.5093986.0248728-27.7641467.0130572-3.1145253-.0039764-4.9381497-1.6759297-4.9657898-4.4848242-.0273641-2.7805972,1.7365657-4.298315,5.0103254-4.2972113,9.2546831.0031568,18.5094311-.0122132,27.7640168.0226087,8.6166742.0324279,14.0938124-6.3809408,13.8578254-13.6623571-.2863331-8.8337693-.0492424-17.6840852-.0760547-26.5271301-.0039277-1.2899595-.0426205-2.6236837-.3601155-3.8614712-1.6419761-6.4005956-7.3118316-10.5255153-14.3704074-10.5278687-22.348456-.0074172-44.6969119-.0038466-67.0453841-.0030919-50.249764.0017204-100.4995198-.0036518-150.7492919.0146234-8.0067598.0029133-14.322086,6.3332241-14.3369285,14.2818067-.0161369,8.6377004.0000771,17.2754658-.0081151,25.9131987-.0087602,9.244312,5.0846151,14.3503306,14.3268334,14.3517021,9.4603277.001412,18.9206555-.0021992,28.3809508.0163438,2.6443609.0051774,4.1069123,1.0484136,4.5879103,3.1651554.7154675,3.1485032-1.321795,5.5910174-4.744978,5.5961623-11.6399858.017553-23.2800041.0067031-35.2283879.0067031l-.0000243.0000487-.0000325-.0000162ZM128.8515842,41.8424528c0-2.5715036-.1614093-4.8340452.0649045-7.0571191.1218076-1.1964087.6098333-2.6479235,1.449973-3.4249358,2.7022946-2.4991981,5.8711748-4.1363985,9.7234111-4.1310872,16.8560776.0232741,33.7124311-.0300948,50.5680218.0639997,1.986819.0111015,4.0798809.4828401,5.9315187,1.2222796,4.0506666,1.6175943,7.1493999,4.0872859,6.2279307,9.1926756-.1196652.6631292.0484471,1.3735693-.0213427,2.0513219-.1558423,1.5129136.5014318,2.1222113,1.9957294,2.1085008,4.0423567-.0370819,8.0853139-.0282446,12.1278816-.00846,1.4096896.0069059,2.1239479-.4692676,2.101534-2.0432514-.069238-4.8639128.0913111-9.7328327-.050411-14.5935969-.2631563-9.0244578-8.0790329-16.4615216-17.1498441-16.4638811-23.9822521-.0062385-47.9645042-.0032014-71.9467562-.0105577-7.1159981-.002183-15.5563962,6.4514306-16.5105043,13.5864221-.8008626,5.9889857-.4637291,12.1354043-.4830755,18.2125809-.0013633.4316907,1.1848041,1.1867152,1.8629827,1.2411594,2.0422289.1639777,4.1063199.0549757,6.1618738.0541845,2.5851451-.00099,5.1703226-.0002394,7.94614-.0002353h.0000325ZM166.0370006,41.8569544v-.0173501c8.6363452,0,17.2728203.0235906,25.9086623-.0417075.7466051-.0056481,1.9208108-.4109282,2.1563434-.9524851.8997207-2.0682784-.1596564-3.9371283-2.3784049-4.5005756-.917152-.2329154-1.8899735-.3432605-2.8377356-.3446684-15.4905341-.0231524-30.9811007-.0260008-46.4716186-.0077702-.948249.0011158-1.9201779.1208662-2.8394073.3514973-1.8896002.4740758-2.3382352,1.4951416-2.0745108,4.0225802.1882053,1.8036816,1.5345323,1.4726587,2.6277331,1.4759737,8.6362478.0261144,17.2726093.0145017,25.9089382.0145057Z"/>
        <path class="cls-2" d="M146.5412445,182.5255804c.2893843-.925754.7181049-2.359237,1.1845606-3.7803527,9.1842603-27.9807548,18.3741524-55.9596431,27.5587536-83.9402681.9036809-2.753014,2.9914842-3.9648981,5.4262566-3.1186721,2.9067788,1.0102727,4.1563414,3.3547403,3.2697346,6.041251-8.6535979,26.2206472-17.2982692,52.444224-25.9484588,78.665983-.9394522,2.8477983-1.851443,5.7060002-2.863006,8.5282684-.7059809,1.9697124-2.854615,3.1388543-4.7325132,2.7256986-2.3917461-.5261828-3.9779715-2.3823164-3.8953274-5.1219242v.0000162Z"/>
        <path class="cls-5" d="M235.6249742,140.0695874c-.9181745,1.6540189-1.3869349,3.1576814-2.3670762,4.1625413-10.281681,10.5408447-20.6342392,21.0127923-30.9953833,31.4758943-2.0445985,2.064724-4.5770117,2.0876248-6.5242615.2143359-2.0852714-2.0060843-2.1147941-4.6459576.0768824-6.8751421,4.3216296-4.3956231,8.7107444-8.7247998,13.0697684-13.0836777,4.6980565-4.6979429,9.3684567-9.4239153,14.1067317-14.0809094,1.2794423-1.2575153,1.3906354-2.0825772-.0130491-3.4524704-8.8718128-8.6580937-17.6491173-17.4131952-26.4343745-26.1596298-.7157028-.7125379-1.3826501-1.5331446-1.8535692-2.4197026-.8847078-1.6655667-.7382141-3.3991948.581398-4.7455947,1.3353391-1.3624435,3.024399-2.2607685,4.9731907-1.2840598,1.0766298.5395646,2.1069712,1.2846522,2.9631463,2.133751,9.8237461,9.7425951,19.6420226,19.4913578,29.366862,29.3322592,1.2599174,1.2749466,1.9854882,3.0779262,3.0497506,4.7823886l-.0000162.0000162Z"/>
        <path class="cls-1" d="M131.8853318,103.3962903c3.8474159-.131992,6.2839573,3.5233233,4.8492407,6.4491158-.4104129.8369099-1.058452,1.5946651-1.7232407,2.2638279-8.7435781,8.8011466-17.4916844,17.5979922-26.2901043,26.3441996-1.2721955,1.2646728-1.4544281,2.0908059-.0562295,3.4662985,9.1375417,8.9889461,18.2002054,18.0542391,27.2645732,27.1173735,2.8679887,2.8675991,1.8706433,6.9596689-1.9387452,8.0376459-1.7521305.4958162-3.1445998-.2469262-4.3660841-1.4732308-6.1916075-6.2158554-12.3866883-12.4283187-18.595581-18.6269052-4.1231263-4.1163015-8.2974912-8.1815428-12.3992992-12.3188785-2.6491489-2.6720253-2.7295776-6.00931-.0710801-8.7278023,10.0155545-10.2416411,20.0761722-20.4395175,30.185099-30.5888818.9660535-.9699325,2.3858221-1.4879354,3.1414349-1.9427784l.0000162.0000162Z"/>
      </g>
    </g>
  </g>
</svg>