<?xml version="1.0" encoding="UTF-8"?>
<svg id="Capa_2" xmlns="http://www.w3.org/2000/svg" xmlns:xlink="http://www.w3.org/1999/xlink" viewBox="0 0 357.8449097 203.9126391">
  <defs>
    <style>
      .cls-1 {
        fill: none;
      }

      .cls-2 {
        fill: url(#Degradado_sin_nombre);
      }
    </style>
    <linearGradient id="Degradado_sin_nombre" data-name="Degradado sin nombre" x1="30.4224548" y1="695.95635" x2="327.4224548" y2="695.95635" gradientTransform="translate(0 -594.0000305)" gradientUnits="userSpaceOnUse">
      <stop offset="0" stop-color="#e42c37"/>
      <stop offset=".6618747" stop-color="#de8218"/>
      <stop offset=".9911113" stop-color="#dca90b"/>
    </linearGradient>
  </defs>
  <g id="Capa_2-2" data-name="Capa_2">
    <g>
      <rect class="cls-1" y="25.4563233" width="357.8449097" height="152.9999924"/>
      <path class="cls-2" d="M179.2184553.0313256c44.2166999.0005467,88.4335092.0349223,132.6500997-.0313093,7.9134238-.011864,15.5769561,6.4506512,15.5538477,15.407215-.1465233,56.8378038-.0410775,113.6762546-.0408224,170.5144594.0000729,11.2311374-6.8215701,17.9598912-18.1784369,17.9612763-86.6737353.010479-173.3475254-.0058135-260.0212972.0296691-7.7543576.003171-13.942292-2.5561206-17.2234522-9.9647315-.9285366-2.0966498-1.4616244-4.5543592-1.4649094-6.8475398-.0812667-56.685631-.083572-113.371426-.0527274-170.0571482.00508-9.3381713,4.1859871-14.7245332,12.7233741-16.7425679.9499229-.224546,1.9619541-.2591448,2.9452092-.2594136,44.369711-.0120918,88.7394221-.0104653,133.1091331-.0099003l-.0000182-.0000091ZM55.7673025,12.8464499c-.2254527.3086602-.4508963.617325-.6763398.9259852.7492096.4849939,1.573394.8847892,2.2361567,1.4680212,7.5166081,6.6144875,15.0114564,13.2537191,22.5063958,19.8928003,12.815712,11.3522651,25.6205623,22.7167678,38.4426072,34.0618617,12.5326797,11.0890517,25.0469893,22.19928,37.6378044,33.2220409,5.8606216,5.1307388,11.7823675,10.2028501,17.8698815,15.05904,3.6862817,2.9407078,7.6711318,2.7750854,11.2810173-.2674597,8.0016658-6.7441534,15.9154905-13.594199,23.7933039-20.4832263,13.5184315-11.8216864,27.0565452-23.6226699,40.4492108-35.5859408,15.963147-14.2593491,31.7829781-28.6791721,47.6614368-43.0332738,1.7767589-1.6061658,3.5310654-3.2371714,5.7351109-5.2598579,0,0-246.9366038,0-246.9366038.0000137l.0000182-.0000046ZM303.1322682,190.9024801c-.3769876-.4930764-.5227091-.7372636-.7181099-.9315528-10.8481539-10.7862825-21.6959434-21.5729477-32.5533917-32.3498446-16.5570583-16.4342448-33.12024-32.8622388-49.683039-49.2906518-1.5772758-1.5644823-3.2195029-1.6012589-4.9266632-.1102934-6.5520694,5.7442777-13.4023063,11.1886566-19.5762399,17.3143869-8.6983986,8.6305131-24.1434108,8.2346815-32.3381811.1976606-6.6387258-6.5109007-14.1249905-12.1541794-21.17061-18.2570018-1.202876-1.0419008-1.8995541-.9965224-3.0180334.0928528-7.4511282,7.2571853-15.0290246,14.3847231-22.4513857,21.6708486-20.359775,19.9860312-40.6639385,40.0287582-60.983292,60.0559399-.4007612.3949932-.7181372.8745836-1.311593,1.6076921,0,0,248.730539,0,248.730539-.0000182v-.0000182ZM43.5703507,20.1524763v163.3738685c29.4035329-28.8954489,58.3157755-57.3080998,87.3943966-85.8842774-28.9873631-25.7021069-57.9253656-51.3604208-87.3943966-77.4895911ZM314.2974883,20.2425453c-1.0954985.835652-1.8324887,1.320491-2.4807631,1.9038733-9.7715358,8.7938392-19.4967455,17.6394171-29.3015225,26.3959511-17.554747,15.6779004-35.1576244,31.3018387-52.7348967,46.9544802-2.2103511,1.9683326-2.2052301,1.9960153-.1653125,4.0192212,26.4357894,26.2195765,52.874841,52.4359272,79.3127445,78.6533715,1.7430075,1.7284463,3.4830626,3.4598813,5.3697504,5.3342677V20.2425453Z"/>
    </g>
  </g>
</svg>