<?xml version="1.0" encoding="UTF-8"?>
<svg id="Capa_2" xmlns="http://www.w3.org/2000/svg" xmlns:xlink="http://www.w3.org/1999/xlink" viewBox="0 0 357.8449055 248.6714637">
  <defs>
    <style>
      .cls-1 {
        fill: none;
      }

      .cls-2 {
        fill: url(#Degradado_sin_nombre);
      }
    </style>
    <linearGradient id="Degradado_sin_nombre" data-name="Degradado sin nombre" x1="36.9843808" y1="145.4589071" x2="320.8605248" y2="145.4589071" gradientTransform="translate(0 269.7946389) scale(1 -1)" gradientUnits="userSpaceOnUse">
      <stop offset="0" stop-color="#b70e0c"/>
      <stop offset=".9999998" stop-color="#fcbc00"/>
    </linearGradient>
  </defs>
  <g id="Capa_2-2" data-name="Capa_2">
    <g>
      <g id="Capa_2-2">
        <path class="cls-2" d="M179.0529299.0352802c20.7674408-.0001755,41.5348816-.0036583,62.3023071.0056458,1.9053955.0008583,3.8286591-.0652618,5.7119904.1619682,3.0351105.3662186,5.1676788,2.177494,6.6643372,4.7700272,21.7059479,37.5997791,43.3824921,75.2165852,65.1452484,112.7834644,2.5281372,4.3641052,2.7152405,8.305603.1252747,12.771904-21.8492737,37.6784515-43.5791626,75.4261017-65.3547668,113.1472931-2.0427246,3.5385437-5.2087097,4.9811096-9.2344513,4.9776611-30.5821686-.0262756-61.1643677-.0143433-91.7465363-.0143127-12.6596527,0-25.3197937-.0649719-37.9786987.0319824-5.0568161.0386963-8.4968948-1.9634094-11.0548019-6.4293823-15.5840149-27.2090759-31.3256073-54.3279114-47.0145264-81.4768982-6.0692406-10.5025635-12.1334229-21.0080719-18.2100296-31.5063782-2.0020714-3.4589081-1.8366623-6.8435211.1429214-10.2633209,15.8868713-27.4451599,31.7608109-54.8978195,47.6284103-82.3541183,5.7524719-9.9537201,11.5216675-19.8982239,17.1999817-29.8941879C105.7563906,2.5625935,110.1917391-.01861,115.0036974.000101c21.349472.0830231,42.6994476.0353851,64.049263.035202l-.0000153-.0000229h-.0000153ZM244.1793795,217.9708405c.5304565.9160461,1.8561707.9338989,2.3995972.0254822.0368042-.0615234.0730438-.1231079.1087799-.1850281,17.6601562-30.5898438,35.3037415-61.1892853,53.0084839-91.7532654.7928467-1.3687134.7366333-2.3012543-.0262756-3.6184235-15.9612732-27.5574799-31.8745728-55.1427917-47.8005371-82.7207489-2.1158142-3.6638184-4.2492523-7.3174438-6.4684601-11.1374893-.3867645.6201019-.6214905.9726791-.8328857,1.3387222-17.9380798,31.06353-35.8622894,62.1351013-53.8549347,93.1669922-.7173767,1.2372437-.224411,1.9308929.2936096,2.8280945,14.6750946,25.4165344,29.3482361,50.8342285,44.0248108,76.2498779,3.0193481,5.2286682,6.047699,10.4521179,9.1478271,15.8058167l-.0000153-.0000305ZM227.6009798,21.1044293c.5301971-.9261093-.136795-2.0815659-1.203949-2.0815659h-.2106476c-35.2063293,0-70.4126892.0159225-105.6188965-.0455246-1.8197937-.0031815-2.7343979.6018906-3.6172943,2.1370163-15.8108139,27.4908085-31.6842957,54.9455738-47.5401077,82.4104786-1.707077,2.9569244-3.3985214,5.9228821-5.1960297,9.0667267-.5294037.9259186.1393204,2.0796814,1.2059021,2.0796967h.4697266c34.9217682.0003052,69.8435745-.0225525,104.7651749.056076,2.189621.0049438,3.3587799-.6278534,4.4539948-2.5355835,15.287323-26.6289062,30.665802-53.2054901,46.0170288-79.7977371,2.1302643-3.6901627,4.2428741-7.3904953,6.4751129-11.2895737,0,0-.0000153-.0000076-.0000153-.0000095ZM226.4242373,229.574234c1.0615997-.0000305,1.7320404-1.1430664,1.2140961-2.0697327-.0311279-.0556946-.062439-.1108704-.0941467-.165802-17.6566315-30.5887451-35.3288727-61.1685486-52.9395599-91.7837219-.7940216-1.3803711-1.6434937-1.7597198-3.1584625-1.757843-35.3527985.0436554-70.7056656.033783-106.0585175.033783h0c-1.0671921,0-1.7332039,1.1578827-1.2026672,2.0838623,1.4482498,2.52771,2.7974548,4.8860626,4.1558075,7.2391357,16.0798492,27.8549347,32.178421,55.6991425,48.2031326,83.5857544,1.0301743,1.7927551,2.9403534,2.8959045,5.0080032,2.8920898,34.7289581-.0639954,69.4580383-.0527649,104.187088-.0574646.2256317-.0000305.4512634-.0000305.6852264-.0000305v-.0000305Z"/>
      </g>
      <rect class="cls-1" x="102.4224528" y="-54.5867209" width="153" height="357.8449055" transform="translate(54.5867209 303.2581846) rotate(-90)"/>
    </g>
  </g>
</svg>