<?xml version="1.0" encoding="UTF-8"?>
<svg id="Capa_1" xmlns="http://www.w3.org/2000/svg" version="1.1" xmlns:xlink="http://www.w3.org/1999/xlink" viewBox="0 0 128.9 128.9">
  <!-- Generator: Adobe Illustrator 29.8.4, SVG Export Plug-In . SVG Version: 2.1.1 Build 6)  -->
  <defs>
    <style>
      .st0 {
        fill: none;
      }

      .st1 {
        fill: url(#Degradado_sin_nombre);
      }
    </style>
    <linearGradient id="Degradado_sin_nombre" data-name="Degradado sin nombre" x1="0" y1="-506.5" x2="128.9" y2="-506.5" gradientTransform="translate(0 -442.1) scale(1 -1)" gradientUnits="userSpaceOnUse">
      <stop offset="0" stop-color="#b70e0c"/>
      <stop offset="1" stop-color="#fcbc00"/>
    </linearGradient>
  </defs>
  <rect class="st0" width="128.9" height="128.9"/>
  <g id="Capa_2-2">
    <path class="st1" d="M64.5,8h30.9c1.4.2,2.3,1,3,2.2,9.9,17.1,19.7,34.2,29.6,51.2,1.1,2,1.2,3.8,0,5.8-9.9,17.1-19.8,34.2-29.7,51.4-.9,1.6-2.4,2.3-4.2,2.3h-58.9c-2.3,0-3.9-.9-5-2.9-7.1-12.4-14.2-24.7-21.3-37-2.8-4.8-5.5-9.5-8.3-14.3-.9-1.6-.8-3.1,0-4.7,7.2-12.5,14.4-24.9,21.6-37.4,2.6-4.5,5.2-9,7.8-13.6,1.1-1.9,3.1-3.1,5.3-3.1h29.2ZM94.1,107c.2.4.8.4,1.1,0h0c8-13.9,16-27.8,24.1-41.7.4-.6.3-1,0-1.6-7.2-12.5-14.5-25-21.7-37.6-1-1.7-1.9-3.3-2.9-5.1-.2.3-.3.4-.4.6-8.1,14.1-16.3,28.2-24.5,42.3-.3.6,0,.9,0,1.3,6.7,11.5,13.3,23.1,20,34.6,1.4,2.4,2.7,4.7,4.2,7.2h0ZM86.6,17.6c.2-.4,0-.9-.5-.9h-48c-.8,0-1.2.3-1.6,1-7.2,12.5-14.4,24.9-21.6,37.4-.8,1.3-1.5,2.7-2.4,4.1-.2.4,0,.9.5.9h47.8c1,0,1.5-.3,2-1.2,6.9-12.1,13.9-24.2,20.9-36.2,1-1.7,1.9-3.4,2.9-5.1h0ZM86,112.2c.5,0,.8-.5.6-.9h0c-8-13.9-16-27.8-24-41.7-.4-.6-.7-.8-1.4-.8H13c-.5,0-.8.5-.5.9.7,1.1,1.3,2.2,1.9,3.3,7.3,12.6,14.6,25.3,21.9,38,.5.8,1.3,1.3,2.3,1.3h47.6-.2Z"/>
  </g>
</svg>