<?xml version="1.0" encoding="UTF-8"?>
<svg id="Capa_2" xmlns="http://www.w3.org/2000/svg" xmlns:xlink="http://www.w3.org/1999/xlink" viewBox="0 0 128.8999784 128.8999784">
  <defs>
    <style>
      .cls-1 {
        fill: none;
      }

      .cls-2 {
        fill: url(#Degradado_sin_nombre_12);
      }
    </style>
    <linearGradient id="Degradado_sin_nombre_12" data-name="Degradado sin nombre 12" x1="0" y1="64.4499892" x2="128.8999784" y2="64.4499892" gradientUnits="userSpaceOnUse">
      <stop offset="0" stop-color="#e42c37"/>
      <stop offset=".6618747" stop-color="#de8218"/>
      <stop offset=".9911113" stop-color="#dca90b"/>
    </linearGradient>
  </defs>
  <g id="Capa_1-2" data-name="Capa_1">
    <g>
      <g>
        <path class="cls-2" d="M64.4898055,2.9916411c18.5249966,0,37.0500046.0123227,55.5749786-.0104993,3.6625768-.0045118,6.2180478,1.686842,7.9014466,4.8341515.7456053,1.393983.9312914,2.923236.9310879,4.4854091-.0016057,11.8559383.00294,23.7118737.002646,35.5678148-.0005654,22.4768112.0024312,44.9536167-.018477,67.4304108-.0012552,1.3489806-.0284845,2.7387259-.3392693,4.0388453-.8802026,3.6821394-4.1645094,6.4351132-7.9418608,6.5156816-5.7400313.1224187-11.4841109.0652463-17.2264717.0663431-31.4304922.0059932-62.8609732.0047606-94.2914598.0105841-5.1783849.0009612-9.0642577-3.8476523-9.0673645-9.0822569C.0017523,94.4329475.0077454,72.0177697.006691,49.602592.006103,37.1291861.0108381,24.6557801.0000052,12.1823855c-.0019676-2.26748.5510963-4.3431903,2.0094576-6.1085116,1.7597267-2.1301208,4.0148812-3.1112318,6.8127048-3.1060641,18.5558303.0342684,37.1117482.017742,55.6676379.017742v.0060893ZM3.8500039,28.4457851c-.0170664.3283968-.0431479.5989935-.0433401.8696128-.0019902,2.7785465.0012241,5.5570987.001094,8.3356452-.0012297,26.2115433.0274526,52.4231602-.03733,78.6345508-.0095919,3.8819942,2.8324199,6.0107411,5.8642932,5.8903804,3.0518091-.1211409,6.1121866-.0262455,9.16881-.0262568,33.4056956-.0001244,66.8114534-.0303616,100.2169963.0425966,3.6362522.0079381,6.1121612-2.5166738,6.1020181-6.0595232-.0826038-28.867004-.0452653-57.7343528-.0444172-86.6015942.0000113-.3533701,0-.7067403,0-1.0854117H3.8500039ZM125.0257276,24.6208389c.0184431-.22212.0458759-.3996814.0460795-.5772824.0047719-4.1684332.0089445-8.3368721.0040934-12.5052969-.0003505-.3054107-.0422009-.61725-.1118572-.9150816-.5705034-2.4391925-2.5865676-3.9056757-5.3589231-3.905899-36.8675412-.0029627-73.7350881-.0054108-110.6026321-.0078674-3.0208284-.0002007-5.1768583,2.1344065-5.1915246,5.1900432-.0195597,4.0756213-.0065868,8.151398-.0025132,12.2271069.0001724.1708615.0516599.3416778.076294.4942772h121.1409832Z"/>
        <path class="cls-2" d="M63.2341542,87.0338858c-.2177156,2.6805471-1.6472532,4.4530743-4.3530394,5.2113557-1.0926826.3062051-1.8232542.7581457-2.3223711,1.8346525-.374742.8082621-1.0946276,1.4830803-1.7454958,2.1324898-5.0044504,4.9932048-10.0088047,9.9868732-15.0579211,14.9347561-2.2072742,2.163021-4.9156443,2.7935803-7.8681959,1.9748132-3.106604-.8614881-5.0505638-2.99659-5.9144831-6.0669072-.7649813-2.7186998-.1071418-5.1523174,1.8716065-7.1499047,5.1487781-5.1978089,10.3090958-10.3850111,15.5354231-15.5043435.8471724-.8298375,2.0731802-1.2642848,3.087686-1.9364231.3746628-.2482298.7342805-.6077175.9401398-1.0006311.2820798-.5384004.3829458-1.1682699.6112964-1.7389994.5815624-1.4535329,1.6081168-2.4619438,3.0958446-2.9831224.3454094-.1210052.6915538-.2399185,1.356342-.4703837-1.893278-1.8130884-3.652869-3.4870904-5.3991451-5.174854-.9543594-.9223695-1.8564879-1.9014705-2.8470551-2.7819671-.282159-.250808-.8196152-.4015642-1.1931585-.335074-9.9273713,1.767156-19.7700299-5.7686515-19.456339-16.4310214.032233-1.0954418.2340328-2.2180902.5587828-3.2656093.5659915-1.8256967,1.9014536-2.1015063,3.2543636-.7782906,2.0741752,2.0286442,4.1454953,4.0602737,6.2308596,6.0773613,1.080391,1.0450257,1.8662579,1.0233316,2.9239428-.0566523,1.3175052-1.3452716,2.6394883-2.6868229,3.9283225-4.0592899.9842404-1.0481128.9785243-1.5845004-.0044609-2.606509-1.9473747-2.0246695-3.9265641-4.018757-5.8719769-6.0452809-1.8398315-1.9165269-1.4597975-3.1631715,1.143551-3.8425977,5.8211369-1.5192089,12.5579094,1.1675688,16.1421738,6.5034013,2.6806262,3.9906117,3.5658834,8.3506846,2.384259,13.0523562-.1596724.6353425-.0246568.9958083.418769,1.4339308,3.3587972,3.3185696,6.6904443,6.6646285,10.0586836,10.0302105,2.1167945-2.0508359,4.2313953-4.0712593,6.3142663-6.1238874,3.4738715-3.4234329,6.9333368-6.8615942,10.379572-10.3128274.3126054-.313069.5527274-.7403868.7110033-1.1583869.654792-1.729286,1.1760158-3.5153261,1.9299437-5.1982443.3690767-.82385,1.0206573-1.6323552,1.7512345-2.1630266,2.6194734-1.9026918,5.3243663-3.6880364,8.0031607-5.508622,1.0224214-.6948727,1.480095-.6608248,2.3549151.1895477,1.4608943,1.420056,2.8975899,2.8650289,4.3596263,4.283892.5544914.5381177.7366608,1.1084458.3610142,1.8219821-1.6080772,3.0545371-3.1777417,6.1300389-4.84151,9.1538356-.3202381.5820147-.9339375,1.0831106-1.5268869,1.419468-1.7953917,1.018458-3.6508506,1.9305882-5.4735281,2.9017624-.3487.1857935-.6939398.4117921-.9744196.686912-5.5960373,5.4892573-11.1823271,10.9884598-16.8081945,16.5226545,1.231232,1.2951213,2.2762917,2.4198787,3.3493835,3.5172258,1.6184239,1.6549822,3.2429088,3.3047062,4.9018826,4.9185617.2277626.2215772.7073735.3801132,1.0047585.3056623,7.7156135-1.9313685,16.0074408,2.6167595,18.8768402,10.3301002,1.0777619,2.8971375,1.3410312,5.8763587.6390402,8.9110675-.075853.3279727-.1764363.6570197-.3164953.9621845-.6692321,1.4581578-1.7621918,1.6759017-2.9212006.5489732-2.0582877-2.0013527-4.0780044-4.0424073-6.1381353-6.041849-1.3404545-1.3009562-1.9234982-1.2880087-3.2638622.0068526-1.154497,1.115304-2.2981384,2.2423003-3.4271475,3.3833748-.9644913.9747927-.904571,1.8258776.0358911,2.7847263,1.9441237,1.9820955,3.8731515,3.980282,5.7609282,6.0158636,1.1027636,1.1891103.8546921,2.2194132-.6532655,2.8865082-2.7163138,1.2016846-5.5181941,1.0291156-8.2339538.1450005-6.45428-2.1012236-10.3272958-6.5554852-11.3333321-13.2833811-.2533975-1.6946048.1552002-3.484433.2124857-5.2320378.013626-.415665-.0216432-.9711855-.2730053-1.2354724-2.034202-2.1387883-4.1253051-4.2234346-6.2694137-6.3958863ZM62.1067961,70.4540079c-3.5284206-3.5102036-7.0489822-7.0590461-10.6290965-10.5467585-1.1177408-1.0888945-1.3608199-2.2285273-.8936363-3.6806694,1.6861805-5.2411066-.4476889-11.1270488-5.066898-14.1135805-1.8436196-1.1919881-3.8894122-1.6776544-6.2542273-1.8546504,1.4281807,1.5313196,2.7068435,2.9018473,3.9849748,4.2728725,2.0302047,2.1777438,2.0196771,5.2929644-.050139,7.4171825-1.3787202,1.4149505-2.7688331,2.8199672-4.1886743,4.1934179-2.5678927,2.4839715-5.3452971,2.4458867-7.9154288-.0303785-1.2579694-1.2120313-2.5711663-2.3667318-3.8593672-3.5473838-.0724776.0304124-.1449496.0608192-.2174216.0912317.3301382,1.2925544.5478311,2.6268574,1.0095643,3.8705563,2.1804916,5.873266,9.0512113,9.4059383,14.7996274,7.5991597,1.3671975-.4297207,2.3628249-.1361125,3.3253486.8524531,2.0457813,2.1011445,4.1560568,4.1393947,6.2107543,6.2320243,1.4885477,1.5160427,2.930213,3.0781196,4.4214293,4.6498647,1.8878107-1.916951,3.5714073-3.6265274,5.3231903-5.4053418ZM63.6765793,82.5143779c3.0050935,2.9751843,6.0235416,5.9770325,9.0594942,8.9610708.8987022.8833462,1.2661845,1.8746144.8218541,3.0940184-1.9036417,5.2243258.9466362,12.0089984,6.5516066,14.4766979,1.4548899.6405555,2.9615131,1.0125722,4.7582052,1.0972906-1.2512695-1.306203-2.316785-2.4578391-3.4248407-3.5669803-2.3155412-2.317848-2.4277715-5.282776-.1900283-7.6550148,1.3964622-1.4804003,2.8597312-2.9003037,4.3399393-4.297648.4342438-.409932.9955652-.7379612,1.5565021-.9516682,2.2009475-.8385106,4.036335-.0149377,5.6792856,1.4130282,1.316414,1.1441503,2.5866015,2.3414927,4.005442,3.6317516-.0659247-.5633568-.1072097-.9490561-.1566363-1.333715-1.026707-7.9897835-9.5409144-12.837739-16.1214126-10.2486158-.9822898.3864908-1.7948602.0688195-2.5124108-.6531524-2.1098289-2.1228329-4.2279238-4.2374789-6.3509716-6.347093-.9545177-.948468-1.9285641-1.8773057-2.9672575-2.8864516-1.6496335,1.7207712-3.2887169,3.4305399-5.0487715,5.2664814ZM33.8587213,109.9214148c1.4311943-.0206594,2.5143557-.4048887,3.4213183-1.3195123,3.77989-3.8117838,7.5773638-7.6061536,11.3730735-11.4022308,1.3741236-1.3742536,2.7897809-2.7081835,4.1330623-4.1116452.9737863-1.017412,1.0461622-1.8979312.2360569-2.779208-1.1262782-1.2252049-2.2859259-2.4261319-3.5062346-3.5565545-1.0219351-.9466475-2.4265673-.8890114-3.3403994.0157518-5.151622,5.1005162-10.3067495,10.1975044-15.4468092,15.3096451-1.5519225,1.5434981-1.9077351,3.1346927-1.0734763,4.9528358.8481109,1.8483576,2.3542027,2.7827474,4.2034084,2.8909182ZM60.5737181,80.4397051c.1004363-.0827734.1754073-.1350157.2391948-.1984866,7.3509129-7.3149992,14.7491039-14.5834553,22.0243221-21.9730015,2.4550234-2.4936115,5.0393182-4.6910818,8.2899954-6.0390503.4541683-.1883321.9067534-.4000546,1.3177709-.6662582.2941623-.1905146.592565-.4481299.7606787-.747833,1.2364223-2.2041193,2.4524113-4.4200667,3.6359355-6.6529136.1160411-.2189142.0786687-.6634878-.0738176-.8548787-.59209-.7431459-1.2594677-1.4263149-1.9058128-2.1395176-2.3859664,1.5904653-4.601682,3.041844-6.7815516,4.5451993-.3722768.2567389-.6941094.6948783-.8627998,1.1193352-.6480073,1.6305516-1.1787975,3.3083812-1.8480297,4.9294794-.2964917.7182177-.7109355,1.4515145-1.2552386,1.9939009-6.2312893,6.2093465-12.4993065,12.381818-18.7544215,18.5672654-2.1667921,2.1426782-4.3249338,4.2941086-6.5048148,6.4592102.6123537.5906087,1.1427764,1.1021869,1.7185888,1.657549ZM51.1275465,82.3867576c.0710133.1718453.1443842.6814785.4325646.9913022,1.5313252,1.6463203,3.0870415,3.2728294,4.6979061,4.8408768.6237068.6071295,1.4634442.7980737,2.3177801.3957519.888757-.4185259,1.2557418-1.228699,1.2078135-2.1192144-.0307517-.5715663-.2909621-1.2286877-.6624305-1.6652836-1.0358098-1.2174138-2.1681547-2.3548133-3.2942294-3.4922581-.4290988-.433441-.8981595-.8692679-1.4300182-1.1511272-1.562173-.8278586-3.2949871.212056-3.2693861,2.1999524Z"/>
        <path class="cls-2" d="M21.8186037,15.9321063c.0198792-1.5070303,1.1444556-2.5781263,2.6801513-2.5527006,1.5221263.0252024,2.6102915,1.1498551,2.5761926,2.6625478-.0332055,1.4725103-1.2157346,2.6114759-2.6902153,2.5910992-1.4722361-.0203485-2.5860248-1.1926468-2.5661287-2.7009464Z"/>
        <path class="cls-2" d="M13.901852,18.6183299c-1.4544743-.0167073-2.6134011-1.2053936-2.6100738-2.6770982.0031662-1.4003436,1.1875639-2.5475046,2.630148-2.5474509,1.4977975.0000509,2.6498491,1.1385133,2.6535694,2.6222636.0036524,1.4559471-1.1916093,2.6193095-2.6736436,2.6022855Z"/>
        <path class="cls-2" d="M37.6005831,15.9229526c.0277155,1.4453969-1.1602866,2.6720606-2.608844,2.6937377-1.4449842.0216263-2.6762614-1.1774943-2.6875014-2.6173193-.0111213-1.4257891,1.1319209-2.5969425,2.5567149-2.6195865,1.5003022-.0238454,2.7119772,1.1009374,2.7396306,2.5431681Z"/>
      </g>
      <rect class="cls-1" width="128.8999784" height="128.8999784"/>
    </g>
  </g>
</svg>