<?xml version="1.0" encoding="UTF-8"?>
<svg id="Capa_2" xmlns="http://www.w3.org/2000/svg" xmlns:xlink="http://www.w3.org/1999/xlink" viewBox="0 0 304 248.671463">
  <defs>
    <style>
      .cls-1 {
        fill: url(#Degradado_sin_nombre_5);
      }

      .cls-2 {
        fill: none;
      }

      .cls-3 {
        fill: url(#Degradado_sin_nombre_5-3);
      }

      .cls-4 {
        fill: url(#Degradado_sin_nombre_5-5);
      }

      .cls-5 {
        fill: url(#Degradado_sin_nombre_5-2);
      }

      .cls-6 {
        fill: url(#Degradado_sin_nombre_5-4);
      }
    </style>
    <linearGradient id="Degradado_sin_nombre_5" data-name="Degradado sin nombre 5" x1="27.6642699" y1="718.3357614" x2="276.3357287" y2="718.3357614" gradientTransform="translate(0 -594.0000305)" gradientUnits="userSpaceOnUse">
      <stop offset="0" stop-color="#e42c37"/>
      <stop offset=".6618747" stop-color="#de8218"/>
      <stop offset=".9911113" stop-color="#dca90b"/>
    </linearGradient>
    <linearGradient id="Degradado_sin_nombre_5-2" data-name="Degradado sin nombre 5" x1="27.6642685" y1="739.1136483" x2="276.3357315" y2="739.1136483" xlink:href="#Degradado_sin_nombre_5"/>
    <linearGradient id="Degradado_sin_nombre_5-3" data-name="Degradado sin nombre 5" x1="27.6642685" y1="624.8787851" x2="276.3357315" y2="624.8787851" xlink:href="#Degradado_sin_nombre_5"/>
    <linearGradient id="Degradado_sin_nombre_5-4" data-name="Degradado sin nombre 5" x1="27.6642685" y1="624.8787971" x2="276.3357315" y2="624.8787971" xlink:href="#Degradado_sin_nombre_5"/>
    <linearGradient id="Degradado_sin_nombre_5-5" data-name="Degradado sin nombre 5" x1="27.6642685" y1="624.8634518" x2="276.3357315" y2="624.8634518" xlink:href="#Degradado_sin_nombre_5"/>
  </defs>
  <g id="Capa_2-2" data-name="Capa_2">
    <g id="Capa_1-2">
      <g>
        <g>
          <path class="cls-1" d="M152.0768204,5.7714186c35.7380676,0,71.476181.0237727,107.2142334-.0202551,7.0657654-.0087042,11.9957581,3.2542248,15.2433167,9.3259563,1.4384155,2.6892452,1.7966309,5.639452,1.7962341,8.6531696-.0030823,22.8722572.0056763,45.7445107.0050964,68.6167717-.0010986,43.3618317.0046692,86.7236786-.0356445,130.0855103-.0024109,2.6024323-.0549622,5.283493-.6545105,7.7916565-1.6980591,7.1035156-8.0340881,12.414505-15.3212891,12.569931-11.0735474.2361755-22.1549377.1258698-33.2329865.1279907-60.6351318.0115662-121.2702332.0091858-181.9053497.0204163-9.9900436.0018616-17.486599-7.4228058-17.4925919-17.5213318-.0256805-43.2429352-.0141182-86.4858704-.0161514-129.7288208-.001133-24.0634689.0079994-48.1269302-.0128975-72.1903763-.0037956-4.3743801,1.0631638-8.3788023,3.8766098-11.7844276,3.3948326-4.1093898,7.7454338-6.002131,13.1429405-5.9921618,35.7975616.0661101,71.5952911.0342274,107.3929901.0342274,0,0,0,.0117474,0,.0117435ZM35.0916252,54.8770866c-.0329247.6335335-.0832405,1.1555672-.0836105,1.6776428-.0038414,5.3603172.0023613,10.7206535.0021095,16.0809822-.0023727,50.5668259.0529594,101.1337891-.0720177,151.7003326-.0185051,7.4890747,5.4642525,11.5958099,11.3132896,11.3636169,5.8874969-.2337036,11.7915192-.0506287,17.6883011-.0506592,64.4456558-.0002289,128.8914261-.0585785,193.3367691.0821686,7.0149841.0153046,11.7914734-4.8551178,11.7719116-11.6899261-.1593628-55.6896973-.0873108-111.3800507-.0856934-167.0701904v-2.093956H35.0916252v-.0000114ZM268.8616104,47.4980659c.0355835-.4285088.088501-.7710571.0888977-1.1136818.0091858-8.0416641.0172424-16.0833397.0079041-24.1249886-.0006714-.5891914-.0814209-1.1907883-.2157898-1.7653599-1.1006165-4.7056456-4.9899597-7.5347576-10.3383484-7.5351887-71.1241913-.0057154-142.2483673-.010438-213.3725586-.0151777-5.8277283-.0003872-9.9870987,4.1176577-10.0153923,10.0125341-.037735,7.8626118-.0127068,15.7255249-.0048485,23.5883064.0003319.3296242.0996628.6591606.1471863.9535522,0,0,233.7029495,0,233.7029495.0000038Z"/>
          <path class="cls-5" d="M149.6544418,167.9041595c-.4200134,5.1712646-3.1778564,8.5907898-8.3977966,10.0536499-2.1079865.5907288-3.5173798,1.4626007-4.4802704,3.5393829-.7229462,1.5592957-2.1117401,2.8611298-3.3673706,4.1139679-9.6544952,9.6327972-19.3088074,19.2664948-29.049469,28.8118439-4.2582321,4.1728668-9.4831696,5.389328-15.1791763,3.8097839-5.9932022-1.661972-9.743454-5.7809601-11.4101105-11.7041626-1.4757919-5.2448578-.2066956-9.9397583,3.610672-13.793457,9.93293-10.0275116,19.8881149-20.0345764,29.9706497-29.9106903,1.6343536-1.6009064,3.9995422-2.4390259,5.9567108-3.7357178.7227936-.4788818,1.4165649-1.1723938,1.8137054-1.9304047.5441895-1.0386658.7387695-2.2537994,1.179306-3.3548431,1.121933-2.8041229,3.1023407-4.7495422,5.9724426-5.7549896.6663513-.233429,1.334137-.4628448,2.6166229-.9074554-3.6524811-3.4977722-7.0470428-6.7272339-10.4159393-9.9832306-1.8411407-1.7794189-3.5814972-3.6682892-5.4924774-5.3669128-.5443268-.4838562-1.581192-.7746887-2.3018188-.6464233-19.1517029,3.4091644-38.1399765-11.1287766-37.5348053-31.6984253.0621796-2.1133118.4514923-4.2790985,1.0779953-6.2999573,1.0919037-3.5220947,3.668251-4.054184,6.2782593-1.5014648,4.0014572,3.91362,7.9974136,7.8330002,12.0204544,11.7243347,2.0842667,2.0160446,3.6003494,1.9741898,5.6408157-.1092911,2.5417099-2.5952759,5.0920486-5.1833725,7.5784531-7.8311081,1.8987732-2.0219955,1.8877563-3.0567856-.008606-5.0284348-3.7568359-3.9059525-7.5750504-7.7529144-11.3281097-11.6624451-3.5493698-3.6973267-2.8162155-6.1023254,2.2061157-7.4130707,11.2300262-2.9308243,24.2264862,2.252449,31.1411896,12.5462418,5.1714172,7.698616,6.8792419,16.1099854,4.5996704,25.1803665-.3080292,1.2256927-.0475769,1.9210968.8078766,2.7663116,6.4797363,6.4021225,12.9070892,12.8572769,19.4050293,19.3501053,4.0836945-3.9564362,8.1631165-7.8541946,12.181366-11.8140869,6.7017212-6.6044235,13.3756561-13.2372589,20.0240784-19.8953171.6030731-.6039658,1.0663147-1.4283371,1.3716583-2.2347336,1.2632141-3.3361053,2.2687531-6.7817078,3.7232208-10.0283508.7120209-1.5893555,1.9690399-3.1491089,3.3784485-4.1728668,5.0534515-3.670639,10.2716675-7.1148987,15.4395447-10.6271286,1.9724426-1.340538,2.8553772-1.2748489,4.543045.3656769,2.8183289,2.7395477,5.5899811,5.5271606,8.4105072,8.2644119,1.0697174,1.0381241,1.4211578,2.1383896.6964569,3.5149384-3.1022797,5.8927612-6.1304474,11.8259583-9.3401489,17.6594086-.6177979,1.122818-1.8017273,2.0895157-2.9456329,2.7384109-3.4636383,1.9647903-7.0431519,3.7244568-10.5594177,5.5980301-.6727142.358429-1.3387299.794426-1.879837,1.3251801-10.7957764,10.5897751-21.5727386,21.1987305-32.4260712,31.8751984,2.3752747,2.4985199,4.3913727,4.6683807,6.4615631,6.7853699,3.1222382,3.1927643,6.2561646,6.3753662,9.4566345,9.4888.4393921.427475,1.3646545.7333069,1.9383698.5896759,14.8848267-3.7259521,30.8812561,5.0482025,36.4168549,19.9286346,2.0791931,5.5891113,2.5870972,11.3365631,1.2328186,17.1910553-.1463318.6327209-.3403778,1.2675171-.6105804,1.8562164-1.2910767,2.8130493-3.3995819,3.2331238-5.6355286,1.0590668-3.9708099-3.8609619-7.8672028-7.7985382-11.8415833-11.6558228-2.5859833-2.5097809-3.7107849-2.4848022-6.2965851.0132141-2.2272339,2.1516266-4.4335327,4.3258057-6.6115875,6.5271454-1.8606873,1.8805542-1.7450867,3.5224457.0692291,5.3722534,3.7505646,3.823822,7.4720154,7.6786957,11.1138763,11.6056824,2.1274261,2.2940063,1.6488495,4.2816467-1.2602692,5.5685883-5.2402649,2.3182678-10.6455994,1.9853516-15.8847961.2797394-12.4514771-4.0536499-19.9232178-12.6467285-21.8640594-25.6260529-.4888458-3.2691956.299408-6.7221069.4099274-10.0935516.0262909-.8018951-.0417633-1.8735962-.5266724-2.3834534-3.9243469-4.1261139-7.9584656-8.1477661-12.0948334-12.3388367l.0000153-.0000305-.0000305.0000305ZM147.4795609,135.9185791c-6.8069611-6.7718201-13.5987701-13.618187-20.5054626-20.3466187-2.1563263-2.1006775-2.6252747-4.2992325-1.7239838-7.1006775,3.2529449-10.1110458-.863678-21.466095-9.7749634-27.2276611-3.5566711-2.2995682-7.5033875-3.236496-12.0655365-3.5779572,2.7552185,2.9541931,5.2220001,5.5981903,7.6877441,8.2431488,3.916626,4.2012634,3.8963165,10.2110901-.0967255,14.3090897-2.6598053,2.7296982-5.3415833,5.4402237-8.080719,8.089859-4.9539337,4.7920303-10.3120499,4.7185593-15.2702942-.058609-2.4268494-2.3382339-4.9602509-4.5658569-7.4454193-6.843544-.1398239.05867-.2796326.1173248-.4194489.1760025.6369019,2.4935684,1.0568619,5.067688,1.9476318,7.4670029,4.2065659,11.3305969,17.4614334,18.1457596,28.551178,14.6601562,2.6375732-.82901,4.5583191-.2625885,6.4152069,1.6445389,3.9466858,4.0534897,8.0177917,7.9856491,11.9816742,12.0227127,2.8716736,2.9247284,5.6529083,5.9382477,8.5297394,8.9704285,3.641922-3.6981506,6.8898926-6.9962311,10.2694092-10.427887l-.0000305.0000153ZM150.5079575,159.1852264c5.7973633,5.7396698,11.6204987,11.5307922,17.4774017,17.2875214,1.7337646,1.7041321,2.442688,3.6164703,1.5855103,5.9689178-3.6724701,10.0786743,1.8262329,23.1675262,12.6392365,27.9281769,2.8067474,1.2357483,5.7132874,1.9534302,9.1794434,2.1168671-2.4139252-2.5199127-4.4694977-4.7416229-6.6071472-6.8813477-4.4671021-4.4715424-4.683609-10.1914368-.3665924-14.7679138,2.6940308-2.855957,5.5169525-5.5952148,8.3725281-8.2909393.837738-.7908325,1.9206238-1.4236603,3.0027771-1.8359375,4.2460327-1.61763,7.7868195-.0288239,10.9563751,2.7259827,2.5395966,2.2072754,4.9900208,4.5171661,7.7272186,7.0063019-.127182-1.0868073-.2068176-1.8309021-.3021851-2.5729828-1.9807129-15.4137421-18.4061584-24.7663269-31.1011353-19.7714539-1.8950195.7456055-3.462616.1327667-4.8468933-1.2600555-4.0702515-4.0953369-8.1564331-8.1748657-12.252182-12.2446899-1.8414459-1.8297729-3.7205505-3.6216583-5.7243805-5.5684967-3.1824493,3.3196869-6.3445435,6.6181335-9.7399902,10.1599884l.0000305.0000153-.0000153.0000458ZM92.9838943,212.0583649c2.7610321-.039856,4.850647-.7811127,6.6003418-2.545578,7.2920837-7.3536224,14.6181183-14.6736603,21.9407196-21.9969788,2.6509247-2.6511841,5.3819885-5.2245789,7.9734344-7.9321136,1.8786163-1.9627686,2.0182343-3.6614532.4553986-5.3615875-2.1727905-2.3636475-4.4099731-4.6804504-6.7641602-6.8612366-1.9714966-1.8262482-4.6812897-1.7150726-6.4442444.0303955-9.9384155,9.8398285-19.8835907,19.6728363-29.7996979,29.5350952-2.9939423,2.9776764-3.6803665,6.0473785-2.0709305,9.5549164,1.6361618,3.5658112,4.541687,5.3684235,8.1091309,5.5771027l.0000076-.0000153ZM144.5219803,155.1828003c.1937561-.1596832.3383942-.2604675.461441-.3829193,14.1812439-14.111969,28.4536896-28.13414,42.4889221-42.3899078,4.7361908-4.8106232,9.7217712-9.0499496,15.9929047-11.6504288.8761749-.363327,1.7492981-.7717819,2.5422211-1.2853394.5674896-.3675385,1.1431732-.8645248,1.4674988-1.4427032,2.3852844-4.2521515,4.7311401-8.5271072,7.0143738-12.8346786.2238617-.4223251.1517639-1.2799835-.142395-1.6492157-1.1422424-1.4336624-2.4297485-2.7516174-3.6766663-4.1275177-4.602951,3.0682983-8.8774872,5.8682709-13.0828552,8.7685165-.7181854.4953003-1.3390656,1.3405457-1.664505,2.1594009-1.2501221,3.1456299-2.2741089,6.3824692-3.5651855,9.5098572-.571991,1.3855667-1.371521,2.8002396-2.4215851,3.8465958-12.0213013,11.9789581-24.1134338,23.8867722-36.1806793,35.8196182-4.1801453,4.133606-8.3435822,8.2841034-12.5489655,12.4609985,1.1813354,1.139389,2.2046204,2.1263275,3.3154755,3.1977081v.0000153ZM126.2985916,158.9390106c.1369934.3315125.2785339,1.3146973.8344879,1.9123993,2.9542084,3.1760559,5.9554596,6.3138733,9.0631104,9.3389282,1.2032471,1.1712646,2.8232422,1.5396271,4.4714203.7634735,1.7145691-.8074188,2.4225464-2.3703766,2.3300934-4.0883484-.0593262-1.1026459-.5613251-2.3703613-1.2779541-3.2126312-1.9982605-2.3486176-4.1827698-4.5428619-6.3551636-6.7371979-.8278046-.8361816-1.7327118-1.6769867-2.7587738-2.2207336-3.0137177-1.5970917-6.3566284.4091034-6.3072357,4.2441254l.0000153-.0000153Z"/>
          <path class="cls-3" d="M69.7563171,30.7359257c.0383453-2.9073353,2.2078629-4.9736729,5.1704941-4.9246216,2.9364624.0486202,5.0357285,2.2182789,4.9699402,5.1365376-.0640564,2.8407402-2.3453751,5.0380135-5.1899185,4.9986992-2.84021-.0392532-4.9889145-2.3008308-4.9505157-5.2106152Z"/>
          <path class="cls-6" d="M54.4834671,35.9181404c-2.8059464-.0322304-5.0417252-2.3254204-5.0353088-5.164608.0061111-2.7015171,2.2910233-4.9145985,5.0740356-4.9144955,2.8895264.0000973,5.1120453,2.1963997,5.1192169,5.0588226.0070496,2.8087864-2.2988281,5.0531216-5.1579437,5.0202808Z"/>
          <path class="cls-4" d="M100.2026215,30.7182674c.0534668,2.7884312-2.2384033,5.1548901-5.0329361,5.1967068-2.7876358.0417213-5.1629944-2.2715988-5.1846771-5.049284-.0214539-2.7506046,2.1836777-5.0099735,4.932373-5.0536594,2.8943558-.0460033,5.2319031,2.1239071,5.2852402,4.9062366Z"/>
        </g>
        <rect class="cls-2" x="27.6642685" width="248.671463" height="248.671463"/>
      </g>
    </g>
    <rect class="cls-2" y="47.8357353" width="304" height="152.9999924"/>
  </g>
</svg>