<?xml version="1.0" encoding="UTF-8"?>
<svg id="Capa_2" xmlns="http://www.w3.org/2000/svg" xmlns:xlink="http://www.w3.org/1999/xlink" viewBox="0 0 357.8448982 248.671463">
  <defs>
    <style>
      .cls-1 {
        fill: url(#Degradado_sin_nombre_5);
      }

      .cls-2 {
        fill: none;
      }

      .cls-3 {
        fill: url(#Degradado_sin_nombre_5-3);
      }

      .cls-4 {
        fill: url(#Degradado_sin_nombre_5-5);
      }

      .cls-5 {
        fill: url(#Degradado_sin_nombre_5-2);
      }

      .cls-6 {
        fill: url(#Degradado_sin_nombre_5-4);
      }
    </style>
    <linearGradient id="Degradado_sin_nombre_5" data-name="Degradado sin nombre 5" x1="54.5867176" y1="123.5542604" x2="303.2581797" y2="123.5542604" gradientTransform="translate(0 247.8899854) scale(1 -1)" gradientUnits="userSpaceOnUse">
      <stop offset="0" stop-color="#e42c37"/>
      <stop offset=".6618747" stop-color="#de8218"/>
      <stop offset=".9911113" stop-color="#dca90b"/>
    </linearGradient>
    <linearGradient id="Degradado_sin_nombre_5-2" data-name="Degradado sin nombre 5" x1="54.5867176" y1="102.7763508" x2="303.2581806" y2="102.7763508" xlink:href="#Degradado_sin_nombre_5"/>
    <linearGradient id="Degradado_sin_nombre_5-3" data-name="Degradado sin nombre 5" x1="54.5867176" y1="217.0112304" x2="303.2581806" y2="217.0112304" xlink:href="#Degradado_sin_nombre_5"/>
    <linearGradient id="Degradado_sin_nombre_5-4" data-name="Degradado sin nombre 5" x1="54.5867176" y1="217.0112204" x2="303.2581806" y2="217.0112204" xlink:href="#Degradado_sin_nombre_5"/>
    <linearGradient id="Degradado_sin_nombre_5-5" data-name="Degradado sin nombre 5" x1="54.5867176" y1="217.0265633" x2="303.2581806" y2="217.0265633" xlink:href="#Degradado_sin_nombre_5"/>
  </defs>
  <g id="Capa_2-2" data-name="Capa_2">
    <g id="Capa_1-2">
      <g>
        <g>
          <path class="cls-1" d="M178.9992649,5.7714188c35.7380768,0,71.476183.0237727,107.2142304-.0202549,7.0657717-.0087041,11.9957438,3.2542249,15.2433191,9.325956,1.4384083,2.6892461,1.7966269,5.6394528,1.7962442,8.6531698-.0030909,22.872257.0056813,45.7445103.0050926,68.6167673-.0010892,43.3618411.0046805,86.7236822-.0356482,130.0855086-.0024138,2.6024346-.0549588,5.2834954-.6545017,7.7916581-1.6980719,7.1035099-8.034101,12.4144995-15.3212977,12.5699267-11.073557.2361728-22.1549294.1258725-33.2329902.127992-60.635134.0115687-121.2702312.0091843-181.9053431.0204145-9.9900445.0018545-17.4865987-7.4228128-17.4925928-17.5213288-.0256793-43.2429304-.0141175-86.4858756-.0161517-129.7288208-.0011344-24.0634683.0080005-48.1269293-.0128981-72.1903737-.0037959-4.3743804,1.0631648-8.3788025,3.8766086-11.7844277,3.394832-4.1093897,7.7454347-6.0021311,13.1429441-5.9921616,35.7975671.0661099,71.5952979.0342274,107.3929846.0342274v.0117472ZM62.0140743,54.8770851c-.0329243.6335352-.0832399,1.1555668-.0836111,1.6776426-.0038397,5.3603185.0023614,10.7206518.0021107,16.0809777-.0023724,50.5668276.0529613,101.1337878-.0720162,151.7003284-.0185044,7.4890754,5.4642527,11.595813,11.3132857,11.3636142,5.8874943-.2337001,11.7915174-.0506316,17.6883009-.050661,64.4456547-.0002355,128.8914345-.0585796,193.3367727.0821733,7.014993.0153072,11.7914659-4.8551138,11.771905-11.6899231-.1593571-55.6896928-.0873248-111.380048-.085691-167.0701971.0000147-.6817162,0-1.3634287,0-2.093955H62.0140743ZM295.7840445,47.4980672c.0355746-.4285104.0885023-.7710574.0888997-1.1136817.0091991-8.0416663.0172501-16.08334.0079038-24.1249879-.0006771-.5891921-.081408-1.1907882-.2157877-1.7653593-1.1006043-4.7056457-4.9899646-7.5347579-10.3383391-7.5351885-71.1241904-.0057154-142.2483661-.0104382-213.3725564-.0151775-5.8277262-.0003873-9.9870999,4.1176578-10.0153934,10.0125352-.0377341,7.8626122-.0127071,15.7255262-.0048484,23.5883077.0003325.3296242.0996612.6591601.1471849.9535519,0,0,233.7029514,0,233.7029367,0Z"/>
          <path class="cls-5" d="M176.5768816,167.9041613c-.4200141,5.1712669-3.1778539,8.5907836-8.3978022,10.0536541-2.1079818.5907265-3.5173873,1.4626055-4.4802781,3.5393841-.7229427,1.5592913-2.111735,2.8611267-3.3673765,4.1139644-9.6544961,9.6327937-19.3088008,19.2664999-29.0494663,28.811851-4.258235,4.1728678-9.4831729,5.3893213-15.1791796,3.8097774-5.9932025-1.6619674-9.7434546-5.7809655-11.4101136-11.7041705-1.4757896-5.2448594-.2066954-9.9397624,3.6106694-13.7934598,9.9329294-10.0275141,19.8881168-20.0345694,29.9706559-29.9106891,1.6343482-1.6009004,3.9995429-2.43903,5.9567043-3.735714.7227955-.4788807,1.4165587-1.1724011,1.8137003-1.9304032.5441866-1.0386689.7387724-2.2537978,1.1793041-3.3548437,1.1219388-2.804122,3.102348-4.7495381,5.9724457-5.7549874.6663574-.2334352,1.3341352-.4628523,2.6166306-.9074536-3.6524736-3.4977749-7.0470498-6.7272318-10.4159349-9.9832261-1.8411356-1.779421-3.581501-3.6682886-5.4924832-5.3669198-.5443338-.4838556-1.581185-.7746929-2.3018169-.6464212-19.151703,3.4091696-38.1399757-11.1287734-37.5348104-31.698426.0621819-2.1133098.4514933-4.2790985,1.077993-6.2999541,1.091902-3.5220972,3.6682481-4.0541853,6.2782591-1.5014623,4.00146,3.9136237,7.9974152,7.8330023,12.0204561,11.7243349,2.0842703,2.0160427,3.6003481,1.9741907,5.6408161-.1092921,2.5417061-2.5952741,5.092052-5.1833729,7.5784461-7.831111,1.8987805-2.0219963,1.887749-3.056787-.008603-5.0284314-3.7568424-3.9059554-7.5750535-7.7529117-11.3281058-11.6624436-3.5493706-3.6973282-2.8162133-6.102329,2.2061173-7.4130692,11.2300292-2.9308261,24.2264903,2.2524511,31.1411841,12.5462446,5.1714141,7.6986152,6.879237,16.1099878,4.5996671,25.180366-.3080359,1.2256894-.0475702,1.9210938.8078831,2.7663103,6.4797331,6.4021225,12.9070831,12.8572757,19.4050303,19.3501009,4.0836885-3.9564324,8.1631233-7.8541969,12.1813586-11.8140882,6.7017247-6.6044208,13.3756608-13.2372629,20.0240752-19.8953178.6030753-.6039658,1.0663103-1.4283409,1.37166-2.2347374,1.2632142-3.3361071,2.2687518-6.7817049,3.723218-10.028353.7120215-1.5893538,1.9690392-3.1491087,3.3784521-4.1728678,5.0534454-3.6706362,10.2716643-7.1148947,15.439546-10.6271305,1.9724392-1.3405377,2.8553718-1.2748491,4.5430524.3656735,2.8183254,2.7395447,5.5899785,5.5271599,8.4105116,8.2644085,1.0697102,1.0381243,1.4211583,2.1383901.6964641,3.5149367-3.1022744,5.8927598-6.1304413,11.8259587-9.340146,17.6594103-.6177938,1.1228145-1.8017342,2.0895174-2.9456403,2.7384114-3.4636427,1.9647929-7.0431494,3.7244543-10.5594255,5.5980295-.6727085.358432-1.3387347.794423-1.8798305,1.325179-10.7957749,10.589775-21.5727397,21.1987282-32.4260639,31.8751951,2.3752695,2.4985221,4.3913784,4.6683804,6.4615631,6.7853698,3.1222327,3.1927637,6.2561666,6.3753717,9.4566281,9.4888027.439391.427469,1.364654.7333045,1.9383659.5896815,14.8848209-3.7259556,30.8812556,5.0482057,36.4168493,19.9286405,2.0791924,5.5891101,2.587098,11.3365616,1.2328205,17.1910607-.1463312.6327183-.3403797,1.267512-.6105817,1.856222-1.2910763,2.8130562-3.3995879,3.2331218-5.6355322,1.0590688-3.9708124-3.8609683-7.8672081-7.7985316-11.8415823-11.6558203-2.5859793-2.5097817-3.7107809-2.4848045-6.2965836.0132172-2.2272309,2.1516221-4.4335322,4.3258076-6.6115887,6.5271487-1.8606817,1.8805517-1.7450827,3.5224431.0692358,5.3722479,3.7505649,3.8238188,7.4720167,7.6786937,11.1138709,11.6056891,2.1274249,2.2940087,1.6488533,4.2816521-1.2602705,5.5685925-5.2402672,2.3182648-10.6456022,1.9853473-15.884795.2797396-12.4514723-4.053648-19.9232241-12.6467278-21.8640627-25.6260492-.4888451-3.2691968.2994035-6.7221098.4099246-10.0935559.0262872-.8018926-.0417563-1.8735898-.5266716-2.383453-3.9243461-4.1261071-7.9584627-8.1477719-12.094836-12.3388317l.0000221-.0000294ZM174.4020043,135.9185776c-6.8069619-6.7718141-13.5987637-13.6181847-20.505458-20.3466161-2.1563246-2.100674-2.6252703-4.2992333-1.7239838-7.1006766,3.2529476-10.1110488-.8636735-21.4660969-9.7749669-27.2276634-3.5566783-2.2995649-7.5033818-3.2364997-12.0655388-3.5779539,2.7552199,2.9541917,5.2219942,5.5981914,7.6877382,8.2431477,3.9166336,4.2012671,3.8963221,10.2110904-.0967299,14.3090926-2.6597999,2.729698-5.3415819,5.4402252-8.0807145,8.089862-4.9539337,4.7920304-10.3120519,4.7185557-15.2702981-.058609-2.4268504-2.3382304-4.960248-4.5658587-7.4454204-6.8435447-.1398219.0586679-.2796329.1173284-.4194475.1760037.6368984,2.4935693,1.0568647,5.0676856,1.9476312,7.4670051,4.2065658,11.3306006,17.461432,18.1457607,28.5511719,14.6601579,2.637575-.8290114,4.5583155-.2625852,6.4151999,1.6445407,3.9466814,4.0534861,8.0177856,7.9856478,11.9816729,12.022708,2.8716799,2.9247253,5.6529147,5.9382473,8.5297387,8.9704323,3.6419278-3.6981524,6.8898932-6.9962269,10.269405-10.4278864ZM177.4303993,159.1852238c5.7973693,5.7396655,11.6205033,11.5307868,17.4774015,17.2875257,1.7337642,1.7041359,2.4426949,3.6164648,1.5855049,5.9689206-3.6724686,10.0786755,1.8262405,23.1675319,12.639236,27.9281825,2.8067419,1.2357495,5.7132899,1.9534376,9.1794495,2.1168717-2.4139202-2.5199081-4.4695042-4.7416196-6.6071437-6.8813491-4.4671051-4.47155-4.683614-10.1914339-.3665934-14.767912,2.6940278-2.8559606,5.5169453-5.5952182,8.3725232-8.2909386.8377321-.790839,1.9206301-1.4236604,3.0027775-1.83594,4.2460334-1.6176353,7.7868157-.0288188,10.9563684,2.7259816,2.5396014,2.2072727,4.9900235,4.5171626,7.7272206,7.006309-.1271824-1.0868131-.2068242-1.8309062-.3021853-2.5729829-1.980711-15.4137445-18.4061602-24.7663276-31.1011351-19.771447-1.89502.7456091-3.4626125.1327608-4.8469009-1.2600497-4.0702505-4.0953308-8.1564264-8.1748686-12.252184-12.2446923-1.8414447-1.8297729-3.7205539-3.6216604-5.724373-5.5684895-3.182446,3.3196812-6.3445364,6.6181384-9.7399958,10.1599952l.0000294.0000147ZM119.9063414,212.0583722c2.7610337-.0398577,4.8506468-.7811101,6.6003437-2.5455771,7.2920906-7.3536212,14.6181146-14.6736548,21.9407239-21.9969706,2.650932-2.6511822,5.3819915-5.2245773,7.9734314-7.9321166,1.8786088-1.9627692,2.0182358-3.6614592.4553974-5.3615917-2.1727946-2.3636419-4.4099679-4.6804495-6.7641605-6.8612436-1.9714972-1.8262552-4.6812885-1.7150717-6.4442395.0303937-9.9384157,9.8398239-19.8835945,19.6728332-29.799697,29.5350881-2.993939,2.9776824-3.6803688,6.0473849-2.0709316,9.5549182,1.6361586,3.5658185,4.5416873,5.3684211,8.1091322,5.5770998ZM171.4444199,155.1827961c.1937615-.1596809.3383927-.2604731.4614467-.3829162,14.1812478-14.1119679,28.4536914-28.1341383,42.4889171-42.3899058,4.7361884-4.8106272,9.7217669-9.0499489,15.9929023-11.650426.8761768-.3633259,1.7492922-.7717786,2.5422213-1.2853361.567486-.3675353,1.1431702-.8645271,1.4674921-1.4427061,2.3852781-4.2521489,4.73114-8.5271115,7.0143748-12.8346755.2238682-.4223249.1517623-1.2799859-.1424014-1.6492139-1.1422429-1.4336616-2.4297426-2.7516212-3.6766634-4.1275201-4.6029567,3.0682968-8.8774851,5.8682683-13.0828513,8.7685167-.7181886.4952992-1.3390585,1.3405451-1.664499,2.1594008-1.2501294,3.1456277-2.2741093,6.382466-3.5651856,9.5098575-.5719899,1.385569-1.3715275,2.8002364-2.4215886,3.8465957-12.0212951,11.9789573-24.1134302,23.8867729-36.1806764,35.8196246-4.1801387,4.1336136-8.3435866,8.2841092-12.5489676,12.4609952,1.1813426,1.1393875,2.2046233,2.126321,3.3154791,3.1977091ZM153.2210413,158.9390129c.1369997.3315192.27854,1.3146994.8344941,1.9124025,2.9542065,3.1760582,5.9554606,6.3138778,9.0631146,9.3389244,1.2032437,1.1712678,2.8232487,1.5396274,4.4714176.7634774,1.7145713-.8074121,2.4225526-2.3703829,2.3300911-4.0883542-.0593229-1.1026502-.561319-2.3703682-1.2779474-3.2126337-1.9982628-2.3486143-4.182766-4.5428611-6.3551705-6.7371962-.8278119-.8361867-1.7327118-1.6769803-2.758767-2.2207401-3.0137133-1.5970883-6.3566277.4091004-6.3072324,4.24412Z"/>
          <path class="cls-3" d="M96.6787654,30.7359253c.038349-2.9073354,2.2078614-4.9736731,5.1704979-4.9246219,2.9364596.0486207,5.0357281,2.2182784,4.9699438,5.1365387-.0640585,2.8407416-2.3453726,5.0380131-5.1899152,4.9987-2.8402118-.0392542-4.9889122-2.3008307-4.9505264-5.2106168Z"/>
          <path class="cls-6" d="M81.4059136,35.9181391c-2.8059453-.0322298-5.0417258-2.3254216-5.0353067-5.1646086.0061082-2.7015176,2.2910264-4.9145986,5.0740329-4.9144956,2.8895242.0000975,5.1120416,2.1963994,5.1192168,5.0588232.0070465,2.8087878-2.2988309,5.0531216-5.157943,5.020281Z"/>
          <path class="cls-4" d="M127.1250676,30.7182668c.0534649,2.7884321-2.2384023,5.1548889-5.0329352,5.1967078-2.7876373.0417196-5.1629951-2.2715998-5.1846755-5.0492838-.0214522-2.7506056,2.1836789-5.0099744,4.9323712-5.0536589,2.8943537-.0460026,5.2318997,2.1239072,5.2852395,4.9062348Z"/>
        </g>
        <rect class="cls-2" x="54.5867176" width="248.671463" height="248.671463"/>
      </g>
    </g>
    <rect class="cls-2" y="47.8357315" width="357.8448982" height="153"/>
  </g>
</svg>